<svg width="35" height="47" viewBox="0 0 35 47" fill="none" xmlns="http://www.w3.org/2000/svg">
<path d="M15.6961 47L16.3745 18.4083H18.6253L19.5022 47H15.6961Z" fill="white"/>
<path d="M20.5455 18.1308L20.8227 16.9153L23.3208 17.0816L35 20.5387L34.9208 20.886L22.8731 19.045L20.5455 18.1308Z" fill="white"/>
<path d="M18.1386 14.5011H16.8811L16.4941 12.05L17.3233 0H17.6826L18.5256 12.05L18.1386 14.5011Z" fill="white"/>
<path d="M19.9904 17.4314C19.9904 18.7927 18.8767 19.8962 17.5029 19.8962C16.1291 19.8962 15.0155 18.7927 15.0155 17.4314C15.0155 16.0702 16.1291 14.9666 17.5029 14.9666C18.8767 14.9666 19.9904 16.0702 19.9904 17.4314Z" fill="white"/>
<path d="M14.1744 16.9427L14.4515 18.1582L12.1239 19.0723L0.0791745 20.9262L0 20.5789L11.6763 17.1089L14.1744 16.9427Z" fill="white"/>
</svg>
