<svg width="256" height="256" viewBox="0 0 256 256" fill="none" xmlns="http://www.w3.org/2000/svg">
<path d="M6.10001 169.946L0 88.3014H9.46124L12.449 135.877L16.2459 88.4022H23.6531L27.6368 135.575L30.6868 88.3014H40.0235L33.9858 169.946H24.2756L19.9806 120.657L15.9347 169.946H6.10001ZM45.5175 169.946V88.3014H56.6594V169.946H45.5175ZM64.1775 169.946V88.3014H72.0204L82.3531 127.612V88.3014H91.5653V169.946H84.0337L73.701 127.612V169.946H64.1775ZM99.0688 169.946V88.3014H111.829C116.228 88.3014 119.651 89.2086 122.099 91.0229C124.548 92.7701 126.27 95.5588 127.266 99.389C128.262 103.152 128.76 108.058 128.76 114.105V143.739C128.76 149.854 128.262 154.861 127.266 158.758C126.27 162.588 124.548 165.411 122.099 167.225C119.693 169.039 116.311 169.946 111.954 169.946H99.0688ZM110.211 157.448H111.954C113.655 157.448 114.879 157.045 115.626 156.238C116.373 155.432 116.829 154.222 116.995 152.609C117.203 150.997 117.307 148.981 117.307 146.562V110.981C117.307 108.561 117.182 106.613 116.933 105.134C116.726 103.656 116.248 102.581 115.501 101.909C114.755 101.237 113.551 100.901 111.891 100.901H110.211V157.448ZM139.598 169.946V101.707H132.004V88.3014H158.334V101.707H150.802V169.946H139.598ZM162.773 169.946V88.3014H185.43V100.599H173.915V120.859H182.691V133.357H173.915V157.75H185.554V169.946H162.773ZM205.053 169.982C201.236 169.982 198.206 168.873 195.965 166.655C193.766 164.371 192.21 161.212 191.297 157.181C190.384 153.081 189.928 148.277 189.928 142.767V113.334C189.928 107.69 190.384 102.851 191.297 98.8195C192.21 94.7205 193.766 91.5622 195.965 89.3447C198.206 87.1271 201.236 86.0184 205.053 86.0184C208.788 86.0184 211.693 87.0263 213.767 89.0423C215.883 90.991 217.379 93.7461 218.25 97.3076C219.121 100.869 219.557 104.968 219.557 109.605V116.66H208.664V108.496C208.664 106.883 208.602 105.338 208.477 103.859C208.394 102.381 208.103 101.171 207.605 100.231C207.108 99.2227 206.257 98.7187 205.053 98.7187C203.892 98.7187 203.019 99.2227 202.44 100.231C201.9 101.239 201.547 102.515 201.381 104.061C201.256 105.539 201.195 107.118 201.195 108.798V147.202C201.195 149.016 201.277 150.696 201.444 152.242C201.651 153.72 202.025 154.929 202.563 155.87C203.145 156.744 203.975 157.181 205.053 157.181C206.216 157.181 207.046 156.71 207.543 155.769C208.042 154.761 208.353 153.485 208.477 151.939C208.602 150.394 208.664 148.814 208.664 147.202V138.634H219.557V145.69C219.557 150.326 219.121 154.493 218.25 158.189C217.42 161.817 215.946 164.707 213.83 166.857C211.755 168.94 208.829 169.982 205.053 169.982ZM225.874 169.946V88.3014H237.015V121.363H244.796V88.3014H256V169.946H244.796V134.265H237.015V169.946H225.874Z" fill="#2C4A9F"/>
<path fill-rule="evenodd" clip-rule="evenodd" d="M210.311 127.441C210.311 125.281 212.062 123.529 214.222 123.529C216.382 123.529 218.133 125.281 218.133 127.441C218.133 129.601 216.382 131.352 214.222 131.352C212.062 131.352 210.311 129.601 210.311 127.441ZM214.222 122.107C211.277 122.107 208.889 124.495 208.889 127.441C208.889 130.386 211.277 132.774 214.222 132.774C217.168 132.774 219.556 130.386 219.556 127.441C219.556 124.495 217.168 122.107 214.222 122.107ZM212.964 125.144V129.752H213.982V127.687H214.272L214.778 129.752H215.831L215.199 127.522C215.351 127.45 215.467 127.36 215.546 127.254C215.63 127.144 215.687 127.015 215.717 126.867C215.747 126.72 215.762 126.551 215.762 126.361C215.762 126.039 215.698 125.79 215.569 125.616C215.444 125.438 215.268 125.314 215.04 125.246C214.812 125.178 214.543 125.144 214.232 125.144H212.964ZM214.266 127.101H213.982V125.826H214.312C214.505 125.826 214.638 125.881 214.71 125.991C214.782 126.101 214.818 126.255 214.818 126.452C214.818 126.589 214.801 126.706 214.767 126.805C214.737 126.9 214.682 126.974 214.602 127.027C214.522 127.076 214.41 127.101 214.266 127.101Z" fill="#2C4A9F"/>
</svg>
