<svg width="1440" height="473" viewBox="0 0 1440 473"  xmlns="http://www.w3.org/2000/svg">
<path d="M34.3126 472.095L0 12.8423H53.2195L70.0256 280.456L91.3835 13.4093H133.049L155.457 278.755L172.613 12.8423H225.132L191.17 472.095H136.55L112.391 194.843L89.6328 472.095H34.3126ZM256.036 472.095V12.8423H318.709V472.095H256.036ZM360.999 472.095V12.8423H405.115L463.236 233.964V12.8423H515.055V472.095H472.69L414.568 233.964V472.095H360.999ZM557.262 472.095V12.8423H629.038C653.781 12.8423 673.038 17.9451 686.81 28.1507C700.581 37.9784 710.268 53.6648 715.87 75.21C721.472 96.3772 724.273 123.97 724.273 157.989V324.681C724.273 359.078 721.472 387.237 715.87 409.161C710.268 430.706 700.581 446.581 686.81 456.787C673.271 466.993 654.248 472.095 629.739 472.095H557.262ZM619.935 401.79H629.739C639.309 401.79 646.195 399.522 650.396 394.986C654.598 390.45 657.165 383.647 658.099 374.575C659.266 365.503 659.85 354.164 659.85 340.556V140.413C659.85 126.805 659.149 115.844 657.749 107.528C656.582 99.2121 653.897 93.1643 649.696 89.3845C645.494 85.6046 638.725 83.7147 629.388 83.7147H619.935V401.79ZM785.24 472.095V88.2505H742.524V12.8423H890.628V88.2505H848.263V472.095H785.24ZM915.596 472.095V12.8423H1043.04V82.0137H978.269V195.977H1027.64V266.282H978.269V403.491H1043.74V472.095H915.596ZM1153.42 472.294C1131.95 472.294 1114.91 466.057 1102.3 453.583C1089.94 440.732 1081.18 422.966 1076.05 400.287C1070.91 377.23 1068.34 350.204 1068.34 319.209V153.651C1068.34 121.901 1070.91 94.6855 1076.05 72.0064C1081.18 48.9492 1089.94 31.1839 1102.3 18.7103C1114.91 6.23678 1131.95 0 1153.42 0C1174.43 0 1190.77 5.6698 1202.44 17.0094C1214.34 27.971 1222.76 43.4684 1227.66 63.5017C1232.55 83.5349 1235.01 106.592 1235.01 132.673V172.362H1173.74V126.436C1173.74 117.365 1173.39 108.671 1172.68 100.355C1172.22 92.0396 1170.58 85.2359 1167.78 79.9441C1164.98 74.2743 1160.19 71.4394 1153.42 71.4394C1146.89 71.4394 1141.98 74.2743 1138.72 79.9441C1135.69 85.6139 1133.7 92.7956 1132.77 101.489C1132.06 109.805 1131.72 118.688 1131.72 128.137V344.156C1131.72 354.362 1132.18 363.812 1133.12 372.505C1134.29 380.821 1136.39 387.625 1139.42 392.917C1142.69 397.83 1147.36 400.287 1153.42 400.287C1159.96 400.287 1164.63 397.641 1167.43 392.35C1170.24 386.68 1171.99 379.498 1172.68 370.804C1173.39 362.111 1173.74 353.228 1173.74 344.156V295.963H1235.01V335.652C1235.01 361.733 1232.55 385.168 1227.66 405.957C1222.99 426.368 1214.7 442.622 1202.79 454.717C1191.12 466.435 1174.66 472.294 1153.42 472.294ZM1270.54 472.095V12.8423H1333.21V198.811H1376.98V12.8423H1440V472.095H1376.98V271.385H1333.21V472.095H1270.54Z" />
<path fill-rule="evenodd" clip-rule="evenodd" d="M1183 233C1183 220.85 1192.85 211 1205 211C1217.15 211 1227 220.85 1227 233C1227 245.15 1217.15 255 1205 255C1192.85 255 1183 245.15 1183 233ZM1205 203C1188.43 203 1175 216.431 1175 233C1175 249.569 1188.43 263 1205 263C1221.57 263 1235 249.569 1235 233C1235 216.431 1221.57 203 1205 203ZM1197.92 220.08V246H1203.65V234.384H1205.28L1208.13 246H1214.05L1210.5 233.456C1211.35 233.051 1212 232.549 1212.45 231.952C1212.92 231.333 1213.24 230.608 1213.41 229.776C1213.58 228.944 1213.66 227.995 1213.66 226.928C1213.66 225.115 1213.3 223.717 1212.58 222.736C1211.87 221.733 1210.88 221.04 1209.6 220.656C1208.32 220.272 1206.81 220.08 1205.06 220.08H1197.92ZM1205.25 231.088H1203.65V223.92H1205.5C1206.59 223.92 1207.34 224.229 1207.74 224.848C1208.15 225.467 1208.35 226.331 1208.35 227.44C1208.35 228.208 1208.26 228.869 1208.06 229.424C1207.89 229.957 1207.58 230.373 1207.14 230.672C1206.69 230.949 1206.06 231.088 1205.25 231.088Z" />
</svg>
