<svg width="77" height="17" viewBox="0 0 77 17" xmlns="http://www.w3.org/2000/svg">
<path d="M2.80703 16.9929L0.996094 0.462252H3.8049L4.69189 10.0949L5.81911 0.482661H8.01811L9.20076 10.0337L10.1062 0.462252H12.8781L11.0856 16.9929H8.2029L6.92785 7.01327L5.72671 16.9929H2.80703ZM14.5091 16.9929V0.462252H17.8169V16.9929H14.5091ZM20.0488 16.9929V0.462252H22.3772L25.4447 8.42144V0.462252H28.1796V16.9929H25.9436L22.8761 8.42144V16.9929H20.0488ZM30.4071 16.9929V0.462252H34.1953C35.5012 0.462252 36.5175 0.645925 37.2444 1.01327C37.9712 1.36701 38.4825 1.93164 38.7781 2.70715C39.0738 3.46906 39.2216 4.46225 39.2216 5.68674V11.6867C39.2216 12.9248 39.0738 13.9384 38.7781 14.7276C38.4825 15.5031 37.9712 16.0745 37.2444 16.4418C36.5299 16.8092 35.5258 16.9929 34.2323 16.9929H30.4071ZM33.7149 14.4623H34.2323C34.7374 14.4623 35.1008 14.3806 35.3226 14.2174C35.5443 14.0541 35.6798 13.8092 35.7291 13.4827C35.7907 13.1561 35.8215 12.748 35.8215 12.2582V5.05409C35.8215 4.56429 35.7845 4.16974 35.7106 3.87042C35.649 3.5711 35.5073 3.35341 35.2856 3.21735C35.0638 3.0813 34.7066 3.01327 34.2138 3.01327H33.7149V14.4623ZM42.4393 16.9929V3.17654H40.1849V0.462252H48.0015V3.17654H45.7655V16.9929H42.4393ZM49.3192 16.9929V0.462252H56.0456V2.95205H52.627V7.05409H55.2325V9.5847H52.627V14.5235H56.0825V16.9929H49.3192ZM61.8712 17C60.7381 17 59.8385 16.7755 59.1732 16.3265C58.5205 15.8639 58.0585 15.2245 57.7875 14.4082C57.5165 13.5782 57.3809 12.6054 57.3809 11.4898V5.53061C57.3809 4.38776 57.5165 3.40816 57.7875 2.59184C58.0585 1.76191 58.5205 1.12245 59.1732 0.67347C59.8385 0.22449 60.7381 0 61.8712 0C62.98 0 63.8423 0.204082 64.4583 0.612246C65.0864 1.0068 65.5304 1.56463 65.789 2.28571C66.0476 3.0068 66.1772 3.83674 66.1772 4.77551V6.20408H62.9434V4.55102C62.9434 4.22449 62.9248 3.91157 62.8876 3.61225C62.8632 3.31293 62.7766 3.06803 62.629 2.87755C62.4814 2.67347 62.2286 2.57143 61.8712 2.57143C61.5266 2.57143 61.2675 2.67347 61.0954 2.87755C60.9351 3.08163 60.8305 3.34014 60.7811 3.65306C60.7439 3.95238 60.7259 4.27211 60.7259 4.61225V12.3878C60.7259 12.7551 60.7503 13.0952 60.7997 13.4082C60.8613 13.7075 60.9723 13.9524 61.1321 14.1429C61.3046 14.3197 61.551 14.4082 61.8712 14.4082C62.2164 14.4082 62.4628 14.3129 62.6104 14.1224C62.7586 13.9184 62.851 13.6599 62.8876 13.3469C62.9248 13.034 62.9434 12.7143 62.9434 12.3878V10.6531H66.1772V12.0816C66.1772 13.0204 66.0476 13.8639 65.789 14.6122C65.5426 15.3469 65.105 15.932 64.4769 16.3673C63.8609 16.7891 62.9922 17 61.8712 17ZM68.0524 16.9929V0.462252H71.36V7.15613H73.6699V0.462252H76.9961V16.9929H73.6699V9.76837H71.36V16.9929H68.0524Z" />
</svg>
