<svg width="30" height="50" viewBox="0 0 30 50"  xmlns="http://www.w3.org/2000/svg">
<path d="M25.9925 20.5313L24.25 20.1376L24.4883 16.5893L29.4445 6.86646e-05L29.9424 0.112549L27.3031 17.2252L25.9925 20.5313Z" />
<path d="M20.7889 23.9501V25.7364L17.275 26.286L0 25.1082L0 24.5979L17.275 23.4005L20.7889 23.9501Z" />
<path d="M24.9899 21.3198C26.9414 21.3198 28.5234 22.9017 28.5234 24.853C28.5234 26.8044 26.9414 28.3863 24.9899 28.3863C23.0383 28.3863 21.4563 26.8044 21.4563 24.853C21.4563 22.9017 23.0383 21.3198 24.9899 21.3198Z" />
<path d="M24.2893 29.5809L26.0318 29.1873L27.3422 32.4934L30 49.6019L29.5021 49.7144L24.5274 33.1293L24.2893 29.5809Z" />
</svg>
